<svg display="none" version="1.1" xmlns="http://www.w3.org/2000/svg" xmlns:xlink="http://www.w3.org/1999/xlink">
<defs>
<symbol id="icon-logo" viewBox="0 0 1024 1024">
	<title>logo</title>
	<path class="path1" d="M1024 1024h-1024v-1024h1024v1024zM83.617 940.383h856.737v-856.766h-856.737v856.766z" />
	<path class="path2" d="M344.708 606.998l7.665 29.842h0.819l7.402-29.286 94.998-294.883h70.919l-142.131 398.658h-63.225l-142.395-398.658h71.183l94.764 294.327z" />
	<path class="path3" d="M637.133 658.227h208.106v53.131h-287.247v-41.633l200.177-303.66h-198.51v-53.394h278.733v39.965l-201.26 305.591z" />
</symbol>
<symbol id="icon-gdg" viewBox="0 0 1024 1024">
	<title>gdg</title>
	<path class="path1" d="M371.2 123.733l298.667 499.2-38.4 59.733-123.733-204.8v-4.267l-204.8-349.867h68.267zM379.733 102.4h-85.333c-17.067 0-21.333 12.8-12.8 25.6l209.067 358.4 140.8 238.933 59.733-102.4-311.467-520.533z" />
	<path class="path2" d="M494.933 123.733c17.067 0 21.333 0 21.333 4.267l209.067 358.4c4.267 8.533 4.267 25.6 0 34.133l-21.333 38.4-256-435.2h46.933zM494.933 102.4h-85.333l294.4 494.933 42.667-68.267c8.533-17.067 8.533-38.4 0-55.467l-209.067-358.4c-12.8-12.8-25.6-12.8-42.667-12.8v0z" />
	<path class="path3" d="M554.667 691.2l38.4 59.733-8.533 8.533-85.333 140.8c-4.267 8.533-21.333 17.067-29.867 17.067h-51.2l136.533-226.133zM554.667 648.533l-174.933 290.133h93.867c17.067 0 38.4-12.8 46.933-25.6l85.333-140.8c0 0 0 0 4.267-4.267l8.533-17.067-64-102.4z" />
	<path class="path4" d="M482.133 567.467l34.133 55.467-174.933 294.4h-59.733l200.533-349.867zM477.867 520.533c0 8.533-4.267 17.067-4.267 21.333l-213.333 371.2c-12.8 12.8-4.267 25.6 12.8 25.6h81.067l187.733-315.733-64-102.4z" />
</symbol>
<symbol id="icon-android" viewBox="0 0 1024 1024">
	<title>android</title>
	<path class="path1" d="M512 174.933c29.867 0 59.733 4.267 89.6 17.067l8.533 4.267c55.467 25.6 89.6 76.8 98.133 128h-392.533c8.533-55.467 46.933-102.4 98.133-128l8.533-4.267c29.867-8.533 59.733-17.067 89.6-17.067zM371.2 102.4c0 0 0 0 0 0-4.267 0-4.267 4.267-4.267 4.267v0l38.4 68.267c-68.267 34.133-115.2 98.133-115.2 174.933h443.733c0-76.8-46.933-145.067-115.2-179.2l38.4-68.267c0 0 0-4.267 0-4.267s0 0-4.267 0-4.267 0-4.267 0l-38.4 72.533c-29.867-12.8-64-21.333-98.133-21.333s-68.267 8.533-98.133 21.333l-42.667-68.267c4.267 0 4.267 0 0 0v0z" />
	<path class="path2" d="M712.533 405.333v311.467c0 4.267-8.533 12.8-12.8 12.8h-76.8v140.8c0 17.067-8.533 25.6-21.333 25.6s-21.333-12.8-21.333-25.6v-140.8h-128v140.8c0 17.067-8.533 25.6-21.333 25.6s-21.333-12.8-21.333-25.6v-140.8h-85.333c-4.267 0-12.8-8.533-12.8-12.8v-311.467h401.067zM738.133 379.733h-452.267v337.067c0 17.067 21.333 38.4 38.4 38.4h51.2v115.2c0 29.867 21.333 51.2 46.933 51.2s46.933-25.6 46.933-51.2v-115.2h76.8v115.2c0 29.867 21.333 51.2 46.933 51.2s46.933-25.6 46.933-51.2v-115.2h51.2c17.067 0 38.4-21.333 38.4-38.4v-337.067h8.533z" />
	<path class="path3" d="M213.333 396.8c12.8 0 21.333 12.8 21.333 25.6v200.533c0 17.067-8.533 25.6-21.333 25.6s-21.333-12.8-21.333-25.6v-200.533c0-12.8 8.533-25.6 21.333-25.6zM213.333 371.2c-25.6 0-46.933 25.6-46.933 51.2v200.533c0 29.867 21.333 51.2 46.933 51.2s46.933-25.6 46.933-51.2v-200.533c0-29.867-21.333-51.2-46.933-51.2v0z" />
	<path class="path4" d="M810.667 396.8c12.8 0 21.333 12.8 21.333 25.6v200.533c0 17.067-8.533 25.6-21.333 25.6s-21.333-12.8-21.333-25.6v-200.533c0-12.8 8.533-25.6 21.333-25.6zM810.667 371.2c-25.6 0-46.933 25.6-46.933 51.2v200.533c0 29.867 21.333 51.2 46.933 51.2s46.933-25.6 46.933-51.2v-200.533c0-29.867-21.333-51.2-46.933-51.2v0z" />
	<path class="path5" d="M405.333 285.867c-17.067 0-29.867-12.8-29.867-29.867s12.8-29.867 29.867-29.867 29.867 12.8 29.867 29.867c0 17.067-12.8 29.867-29.867 29.867zM405.333 243.2c-4.267 0-12.8 8.533-12.8 12.8 0 8.533 4.267 12.8 12.8 12.8s12.8-4.267 12.8-12.8c0-4.267-4.267-12.8-12.8-12.8z" />
	<path class="path6" d="M618.667 285.867c-17.067 0-29.867-12.8-29.867-29.867s12.8-29.867 29.867-29.867 29.867 12.8 29.867 29.867c0 17.067-12.8 29.867-29.867 29.867zM618.667 243.2c-8.533 0-12.8 4.267-12.8 12.8s4.267 12.8 12.8 12.8c8.533 0 12.8-4.267 12.8-12.8 0-4.267-8.533-12.8-12.8-12.8z" />
</symbol>
<symbol id="icon-gamedev" viewBox="0 0 1024 1024">
	<title>gamedev</title>
	<path class="path1" d="M347.472 403.056c-45.888 0-83.2 37.264-83.2 83.072 0 45.824 37.312 83.136 83.2 83.136 45.792 0 83.104-37.312 83.104-83.136 0-45.808-37.312-83.072-83.104-83.072zM347.472 538.512c-28.944 0-52.448-23.504-52.448-52.384 0-28.864 23.52-52.352 52.448-52.352 28.88 0 52.352 23.488 52.352 52.352 0 28.88-23.472 52.384-52.352 52.384z" />
	<path class="path2" d="M682.56 281.072h-3.536l-3.264 1.584c-57.28 28.336-103.888 41.456-150.064 42.512-1.536-19.52-1.776-57.072 15.616-81.408 8.624-12.064 20.496-19.168 36.272-21.728 7.136-1.152 14.4-2.272 21.68-3.392 80.912-12.48 172.592-26.656 196.336-104.272l-29.408-8.992c-18.112 59.184-96.144 71.232-171.632 82.896-7.376 1.12-14.704 2.272-21.888 3.424-24 3.888-43.008 15.424-56.416 34.304-21.888 30.72-23.040 73.552-21.504 98.080-41.152-3.808-85.312-17.072-142.496-42.64l-2.976-1.36h-3.312c-161.808 0-278.976 285.872-278.976 478.576 0 46.048 6.752 83.184 20.064 110.368 15.856 32.416 40.96 49.6 72.464 49.6 71.856 0 115.872-42.032 158.4-82.688 48.96-46.704 99.536-95.024 198.64-95.024 81.568 0 144.368 49.664 205.008 97.664 50.528 40.048 98.288 77.84 150.976 77.84 29.024 0 51.936-14.56 66.336-42.128 11.984-22.912 18.064-54.624 18.064-94.384 0.048-168.592-124.208-498.832-274.384-498.832zM911.664 860.032c-9.088 17.52-21.568 25.616-39.088 25.616-42 0-83.664-32.96-131.904-71.184-61.792-48.88-131.76-104.304-224.064-104.304-111.472 0-169.040 55.008-219.856 103.568-41.664 39.776-77.648 74.176-137.184 74.176-19.536 0-34.192-10.592-44.88-32.368-11.056-22.608-16.912-56.128-16.912-96.88 0-174.848 105.008-443.776 245.056-447.776 71.472 31.68 124.544 45.216 176.944 45.216 52.16 0 103.552-13.648 166.256-44.192 119.696 5.536 240.224 301.776 240.224 467.984-0.016 34.24-5.056 61.936-14.592 80.144z" />
	<path class="path3" d="M746.224 429.904c0 14.854-12.042 26.896-26.896 26.896s-26.896-12.042-26.896-26.896c0-14.854 12.042-26.896 26.896-26.896s26.896 12.042 26.896 26.896z" />
	<path class="path4" d="M691.584 487.728c0 14.845-12.035 26.88-26.88 26.88s-26.88-12.035-26.88-26.88c0-14.845 12.035-26.88 26.88-26.88s26.88 12.035 26.88 26.88z" />
	<path class="path5" d="M785.44 499.136c0 14.845-12.035 26.88-26.88 26.88s-26.88-12.035-26.88-26.88c0-14.845 12.035-26.88 26.88-26.88s26.88 12.035 26.88 26.88z" />
	<path class="path6" d="M689.472 534.272c-12.496 7.984-16.192 24.608-8.192 37.152 7.952 12.496 24.608 16.192 37.104 8.224 12.56-7.984 16.208-24.608 8.256-37.12-8-12.56-24.624-16.224-37.168-8.256z" />
</symbol>
<symbol id="icon-idea" viewBox="0 0 1024 1024">
	<title>idea</title>
	<path class="path1" d="M510.528 241.824c0-8.832-7.152-16-16-16-92.368 0-167.52 75.152-167.52 167.52 0 8.832 7.152 16 16 16s16-7.168 16-16c0-74.72 60.8-135.52 135.52-135.52 8.848 0 16-7.152 16-16z" />
	<path class="path2" d="M259.776 393.344c0 54.912 17.744 106.832 51.328 150.144 0.16 0.208 0.336 0.416 0.512 0.624 70.032 97.216 52.624 143.456 52.624 143.536-3.744 8-0.288 17.52 7.712 21.28 2.192 1.024 4.496 1.52 6.768 1.504 6.016 0 11.776-3.408 14.496-9.216 2.896-6.144 25.776-63.408-56.48-176.976-0.368-0.496-0.736-0.976-1.152-1.424-28.656-37.44-43.792-82.176-43.792-129.488 0-117.568 95.664-213.216 213.216-213.216s213.216 95.648 213.216 213.216c0 47.44-15.232 92.352-44.336 130.208-82.304 113.648-58.496 171.568-55.52 177.808 3.76 7.824 12.992 11.024 20.896 7.488s11.488-12.944 8.144-20.944c-0.192-0.464-18.528-47.632 52.128-145.216 33.152-43.136 50.688-94.768 50.688-149.328 0-135.216-110-245.216-245.216-245.216s-245.232 110.016-245.232 245.216z" />
	<path class="path3" d="M647.808 772.032v-13.6c0-21.68-17.648-39.312-39.312-39.312h-215.616c-21.68 0-39.312 17.632-39.312 39.312v13.6c0 21.664 17.632 39.312 39.312 39.312h215.632c21.664 0 39.296-17.632 39.296-39.312zM385.568 772.032v-13.6c0-4.032 3.28-7.312 7.312-7.312h215.632c4.032 0 7.312 3.28 7.312 7.312v13.6c0 4.032-3.28 7.312-7.312 7.312h-215.632c-4.032 0-7.312-3.28-7.312-7.312z" />
	<path class="path4" d="M418.784 835.664c-8.848 0-16 7.168-16 16v42.256c0 6.272 3.664 11.952 9.36 14.56l86.224 39.344c2.112 0.96 4.368 1.44 6.64 1.44 2.336 0 4.672-0.512 6.832-1.536l86.464-40.8c5.6-2.64 9.168-8.272 9.168-14.464v-40.784c0-8.832-7.152-16-16-16s-16 7.168-16 16v30.656l-70.576 33.312-70.112-32v-31.968c0-8.864-7.152-16.016-16-16.016z" />
	<path class="path5" d="M877.76 682.464c5.248-7.104 3.728-17.12-3.376-22.368l-108.544-80.032c-7.12-5.248-17.12-3.744-22.368 3.376-5.248 7.104-3.728 17.12 3.376 22.368l108.544 80.032c2.864 2.112 6.192 3.12 9.488 3.12 4.896 0.016 9.744-2.24 12.88-6.496z" />
	<path class="path6" d="M241.776 233.456c2.864 2.112 6.192 3.12 9.488 3.12 4.912 0 9.744-2.256 12.896-6.512 5.248-7.104 3.728-17.12-3.376-22.368l-110.992-81.824c-7.104-5.264-17.12-3.728-22.368 3.376-5.248 7.12-3.744 17.136 3.376 22.384l110.976 81.824z" />
	<path class="path7" d="M246.816 574.56l-116 85.536c-7.104 5.248-8.624 15.264-3.376 22.368 3.136 4.256 7.984 6.512 12.896 6.512 3.296 0 6.624-1.008 9.488-3.12l116-85.536c7.104-5.248 8.624-15.264 3.376-22.368-5.28-7.12-15.28-8.624-22.384-3.392z" />
	<path class="path8" d="M751.584 202.416c-7.104 5.248-8.624 15.264-3.376 22.368 3.136 4.256 7.984 6.512 12.896 6.512 3.296 0 6.624-1.024 9.488-3.12l103.824-76.544c7.104-5.248 8.624-15.264 3.376-22.368s-15.248-8.64-22.368-3.376l-103.84 76.528z" />
	<path class="path9" d="M940.656 389.872h-122.384c-8.848 0-16 7.168-16 16s7.152 16 16 16h122.384c8.848 0 16-7.168 16-16s-7.152-16-16-16z" />
	<path class="path10" d="M204.88 405.872c0-8.832-7.152-16-16-16h-126.288c-8.848 0-16 7.168-16 16s7.152 16 16 16h126.288c8.832 0 16-7.168 16-16z" />
</symbol>
<symbol id="icon-mail" viewBox="0 0 1024 1024">
	<title>mail</title>
	<path class="path1" d="M81.613 270.643c24.986 13.466 371.149 199.373 384.051 206.285 12.851 6.912 29.542 10.24 46.336 10.24 16.845 0 33.536-3.328 46.387-10.291 12.902-6.912 359.014-192.819 384-206.285 25.037-13.414 48.691-55.552 2.765-55.552h-866.253c-45.926 0-22.323 42.138 2.714 55.603zM952.986 373.043c-28.416 14.848-377.19 197.171-394.598 206.285s-29.542 10.291-46.387 10.291c-16.794 0-28.928-1.178-46.336-10.291s-366.234-191.488-394.598-206.285c-20.019-10.445-19.866 1.792-19.866 11.213s0 375.552 0 375.552c0 21.504 28.621 49.152 50.79 49.152h820.070c22.221 0 50.739-27.648 50.739-49.101 0 0 0-366.131 0-375.552 0-9.472 0.205-21.709-19.814-11.264z" />
</symbol>
<symbol id="icon-arrow-down" viewBox="0 0 1024 1024">
	<title>arrow-down</title>
	<path class="path1" d="M132.198 286.771c-13.875-13.722-36.301-13.722-50.125 0-13.824 13.67-13.824 35.891 0 49.613l404.89 400.896c13.875 13.722 36.25 13.722 50.125 0l404.89-400.896c13.824-13.722 13.875-35.891 0-49.613s-36.352-13.722-50.125-0.051l-379.853 365.619-379.802-365.568z" />
</symbol>
<symbol id="icon-github" viewBox="0 0 1024 1024">
	<title>github</title>
	<path class="path1" d="M674.816 579.072c-36.762 0-66.56 41.267-66.56 92.109 0 50.893 29.798 92.16 66.56 92.16s66.56-41.267 66.56-92.16c-0.051-50.893-29.85-92.109-66.56-92.109zM906.547 339.251c7.578-18.688 7.936-124.928-32.461-226.611 0 0-92.774 10.138-233.062 106.445-29.44-8.141-79.258-12.186-129.024-12.186-49.818 0-99.584 4.096-129.075 12.186-140.237-96.307-232.96-106.445-232.96-106.445-40.397 101.683-40.090 207.923-32.461 226.611-47.514 51.61-76.544 113.562-76.544 198.195 0 367.923 305.254 373.811 382.31 373.811 17.459 0 52.173 0.051 88.781 0.102 36.608-0.051 71.322-0.102 88.678-0.102 77.107 0 382.31-5.888 382.31-373.811 0-84.634-28.979-146.586-76.493-198.195zM513.434 866.048h-2.816c-193.126 0-343.552-23.040-343.552-210.739 0-44.954 15.923-86.682 53.555-121.293 62.925-57.702 169.267-27.136 289.997-27.136 0.461 0 0.973 0 1.434-0.051 0.512 0 0.973 0.051 1.382 0.051 120.73 0 227.123-30.566 289.997 27.136 37.632 34.611 53.504 76.339 53.504 121.293 0 187.699-150.323 210.739-343.501 210.739zM349.235 579.072c-36.762 0-66.56 41.267-66.56 92.109 0 50.893 29.798 92.16 66.56 92.16s66.56-41.267 66.56-92.16c0-50.893-29.798-92.109-66.56-92.109z" />
</symbol>
<symbol id="icon-twitter" viewBox="0 0 1024 1024">
	<title>twitter</title>
	<path class="path1" d="M983.040 219.802c-34.714 15.411-71.936 25.754-111.053 30.464 39.936-23.91 70.605-61.798 84.992-106.906-37.325 22.118-78.694 38.246-122.675 46.899-35.277-37.581-85.504-61.030-141.107-61.030-106.752 0-193.28 86.528-193.28 193.229 0 15.155 1.69 29.901 5.018 44.032-160.614-8.038-303.053-84.992-398.336-201.933-16.691 28.518-26.266 61.747-26.266 97.178 0 67.072 34.15 126.208 86.016 160.87-31.693-1.024-61.491-9.677-87.552-24.166 0 0.819 0 1.587 0 2.406 0 93.645 66.662 171.725 155.034 189.542-16.179 4.403-33.28 6.758-50.944 6.758-12.442 0-24.525-1.178-36.352-3.43 24.576 76.8 96 132.659 180.531 134.195-66.15 51.866-149.453 82.739-240.026 82.739-15.616 0-30.976-0.922-46.080-2.714 85.504 54.835 187.085 86.835 296.294 86.835 355.482 0 549.888-294.502 549.888-549.939 0-8.346-0.154-16.691-0.563-24.986 37.786-27.238 70.502-61.286 96.461-100.045z" />
</symbol>
<symbol id="icon-facebook" viewBox="0 0 1024 1024">
	<title>facebook</title>
	<path class="path1" d="M768 211.405h-146.227c-17.306 0-36.608 22.733-36.608 53.197v105.574h182.835v150.528h-182.835v452.096h-172.646v-452.045h-156.518v-150.579h156.518v-88.576c0-127.027 88.166-230.4 209.203-230.4h146.278v160.205z" />
</symbol>
<symbol id="icon-googleplus" viewBox="0 0 1024 1024">
	<title>googleplus</title>
	<path class="path1" d="M101.888 286.157c0 76.442 25.549 131.686 75.878 164.096 41.216 26.573 89.088 30.566 113.971 30.566 6.042 0 10.854-0.256 14.234-0.461 0 0-7.885 51.354 30.208 102.195l-1.741-0.051c-65.997 0-281.293 13.824-281.293 190.822 0 180.070 197.734 189.184 237.363 189.184 3.123 0 4.915-0.051 4.915-0.051 0.461 0 3.277 0.102 8.090 0.102 25.446 0 91.238-3.174 152.371-32.922 79.258-38.451 119.501-105.421 119.501-198.912 0-90.368-61.235-144.128-105.984-183.45-27.29-23.962-50.893-44.646-50.893-64.768 0-20.48 17.203-35.891 39.014-55.398 35.226-31.539 68.506-76.442 68.506-161.331 0-74.65-9.677-124.723-69.325-156.467 6.246-3.174 28.211-5.478 39.117-7.014 32.307-4.403 79.565-9.421 79.565-35.789v-5.069h-235.418c-2.355 0.051-238.080 8.806-238.080 224.717zM481.946 747.622c4.506 71.987-57.088 125.133-149.555 131.84-93.901 6.912-171.264-35.379-175.77-107.366-2.15-34.56 13.005-68.403 42.752-95.386 30.208-27.29 71.578-44.134 116.685-47.514 5.325-0.307 10.598-0.563 15.872-0.563 86.886 0 145.766 51.098 150.016 118.989zM420.454 236.851c23.091 81.254-11.776 166.195-67.328 181.862-6.4 1.792-13.005 2.714-19.661 2.714-50.944 0-101.376-51.507-120.064-122.47-10.445-39.885-9.626-74.701 2.355-108.237 11.776-32.922 32.922-55.245 59.546-62.72 6.4-1.843 13.056-2.714 19.712-2.714 61.44 0 100.966 25.498 125.44 111.565zM817.203 413.798v-153.6h-97.28v153.6h-153.6v97.28h153.6v153.6h97.28v-153.6h153.6v-97.28h-153.6z" />
</symbol>
<symbol id="icon-linkedin" viewBox="0 0 1024 1024">
	<title>linkedin</title>
	<path class="path1" d="M259.891 156.16c0 54.426-40.192 98.509-106.291 98.509-62.208 0-102.4-44.083-102.4-98.509 0-55.706 41.523-98.509 105.011-98.509s102.4 42.803 103.68 98.509zM56.422 966.349v-633.856h197.018v633.856h-197.018zM371.354 534.682c0-79.053-2.611-145.152-5.222-202.189h171.11l9.114 88.166h3.891c25.907-41.523 89.446-102.4 195.738-102.4 129.587 0 226.816 86.835 226.816 273.51v374.63h-197.018v-351.283c0-81.664-28.57-137.421-99.84-137.421-54.426 0-86.784 37.581-101.069 73.882-5.222 12.954-6.502 31.078-6.502 49.254v365.568h-197.018v-431.718z" />
</symbol>
<symbol id="icon-skype" viewBox="0 0 1024 1024">
	<title>skype</title>
	<path class="path1" d="M955.955 616.346c6.81-31.949 10.394-65.126 10.394-99.226 0-255.283-201.165-462.285-449.331-462.285-26.163 0-51.866 2.355-76.8 6.758-40.243-26.010-87.706-41.114-138.701-41.114-143.872 0-260.557 120.064-260.557 268.134 0 49.459 13.107 95.795 35.84 135.578-5.939 30.003-9.114 61.082-9.114 92.928 0 255.283 201.216 462.285 449.331 462.285 28.109 0 55.654-2.662 82.278-7.731 36.659 20.275 78.592 31.795 123.136 31.795 143.974 0 260.608-120.013 260.608-268.083 0-42.752-9.779-83.2-27.085-119.040zM747.469 738.099c-20.787 30.259-51.507 54.272-91.29 71.27-39.424 16.845-86.579 25.395-140.39 25.395-64.563 0-118.63-11.674-160.87-34.765-30.208-16.742-55.091-39.475-73.984-67.482-19.098-28.365-28.774-56.474-28.774-83.558 0-16.947 6.298-31.642 18.739-43.674 12.339-11.878 28.109-17.971 46.899-17.971 15.411 0 28.774 4.762 39.578 14.131 10.342 9.062 19.2 22.426 26.317 39.578 7.987 18.79 16.64 34.611 25.805 47.104 8.806 11.981 21.504 22.118 37.683 30.003 16.282 7.885 38.246 11.93 65.28 11.93 37.12 0 67.584-8.141 90.47-24.269 22.426-15.77 33.28-34.611 33.28-57.702 0-18.227-5.683-32.614-17.357-43.827-12.237-11.725-28.416-20.89-47.974-27.187-20.429-6.554-48.179-13.619-82.432-20.992-46.643-10.291-86.272-22.477-117.76-36.25-32.154-14.029-58.163-33.587-77.158-58.061-19.302-24.781-29.082-56.013-29.082-92.672 0-34.918 10.24-66.406 30.515-93.542 20.122-26.931 49.408-47.923 87.194-62.31 37.325-14.182 81.715-21.402 131.891-21.402 40.141 0 75.418 4.813 104.858 14.182 29.594 9.523 54.579 22.323 74.189 38.093 19.763 15.923 34.458 32.922 43.725 50.483 9.318 17.869 14.029 35.584 14.029 52.736 0 16.538-6.195 31.539-18.432 44.646-12.288 13.158-27.853 19.814-46.131 19.814-16.589 0-29.645-4.198-38.707-12.39-8.397-7.629-17.152-19.61-26.778-36.71-11.213-21.965-24.781-39.219-40.294-51.354-15.155-11.827-40.346-17.869-75.059-17.869-32.205 0-58.419 6.656-77.875 19.814-18.79 12.698-27.853 27.187-27.853 44.339 0 10.547 2.918 19.354 8.96 26.88 6.4 8.038 15.36 15.104 26.778 20.941 11.776 6.093 23.962 10.957 36.147 14.438 12.493 3.533 33.434 8.806 62.208 15.667 36.352 8.038 69.734 17.050 99.277 26.726 29.952 9.83 55.808 22.016 76.902 36.096 21.504 14.438 38.554 32.973 50.637 55.040 12.083 22.221 18.227 49.613 18.227 81.408 0.051 38.195-10.496 72.858-31.386 103.27z" />
</symbol>
</defs>
</svg>
